<svg xmlns="http://www.w3.org/2000/svg" viewBox="0 0 24 24"><path d="M12 0C5.373 0 0 5.373 0 12s5.373 12 12 12 12-5.373 12-12S18.627 0 12 0zm6.361 15.967l-1.868.026s-.403.079-.93-.285c-.699-.48-1.358-1.729-1.872-1.567-.521.166-.505 1.29-.505 1.29s.004.198-.115.327c-.129.139-.382.125-.382.125h-.837s-1.846.153-3.473-1.543c-1.772-1.849-3.338-5.498-3.338-5.498s-.092-.23.006-.348c.111-.13.41-.134.41-.134l2-.01s.188.033.324.133c.111.082.174.236.174.236s.323.819.752 1.561c.836 1.446 1.224 1.763 1.508 1.608.414-.226.29-2.044.29-2.044s.008-.66-.208-.954c-.168-.229-.484-.297-.622-.314-.113-.015.071-.277.311-.395.36-.176.996-.186 1.747-.179.585.006.754.042.982.098.69.167.456.811.456 2.356 0 .495-.089 1.191.267 1.42.154.099.529.015 1.464-1.579.445-.756.778-1.644.778-1.644s.073-.158.186-.226c.116-.07.272-.048.272-.048l2.105-.013s.632-.076.735.211c.108.3-.236 1.001-1.096 2.148-1.412 1.884-1.569 1.709-.396 2.799 1.12 1.041 1.351 1.547 1.39 1.611.463.771-.515.832-.515.832z"/></svg>