<svg viewBox="0 0 50 50" fill="#fc981c" xmlns="http://www.w3.org/2000/svg" filter="drop-shadow(0 4px 40px rgba(255,193,101,.5))"><path d="M17.025 24.885a1.54 1.54 0 1 1-3.079 0 1.54 1.54 0 0 1 3.08 0zM29.077 24.885a1.54 1.54 0 1 1-3.079 0 1.54 1.54 0 0 1 3.079 0z"/><path d="M46.833 32.047v-.808c0-.777-.632-1.41-1.41-1.41h-4.548c-.778 0-1.41.633-1.41 1.41v.807H34.93c.029-.156.056-.313.08-.47a5.425 5.425 0 0 0 2.938-1.644 5.419 5.419 0 0 0 1.443-3.69v-1.571a3.406 3.406 0 0 0-3.403-3.403h-.844v-.394a38.378 38.378 0 0 0 1.765-.286c4.563-.853 6.781-2.282 6.781-4.37 0-2.36-2.956-4.204-8.558-5.347V7.11A6.139 6.139 0 0 0 29 .977a6.13 6.13 0 0 0-3.028.799c-1.303.742-2.729 1.134-4.121 1.134h-.011c-1.393 0-2.818-.392-4.121-1.134a6.13 6.13 0 0 0-3.028-.8A6.139 6.139 0 0 0 8.559 7.11v3.763C2.956 12.014 0 13.857 0 16.219c0 2.087 2.218 3.516 6.781 4.37.306.056.625.112.954.164v.515H6.92a3.407 3.407 0 0 0-3.403 3.403v1.571A5.42 5.42 0 0 0 4.95 29.92 5.425 5.425 0 0 0 7.87 31.57a12.637 12.637 0 0 0 3.586 7.106v7.97a2.485 2.485 0 0 0 2.482 2.482h32.879A3.188 3.188 0 0 0 50 45.945V35.23c0-1.75-1.42-3.174-3.167-3.183zm-5.904-.754h4.44v.753h-4.44v-.753zM14.69 2.44c.808 0 1.605.21 2.303.607 1.524.867 3.2 1.326 4.846 1.326h.01c1.647 0 3.322-.459 4.846-1.326a4.665 4.665 0 0 1 2.303-.607 4.673 4.673 0 0 1 4.668 4.668v2.61H16.754a.732.732 0 0 0 0 1.465h16.913v2.718a.373.373 0 0 1-.372.373h-22.9a.373.373 0 0 1-.372-.373v-2.718h3.257a.732.732 0 1 0 0-1.465h-3.257V7.11A4.673 4.673 0 0 1 14.69 2.44zM1.464 16.219c0-1.462 2.694-2.912 7.095-3.851v1.534c0 1.012.824 1.836 1.836 1.836h22.9a1.839 1.839 0 0 0 1.837-1.836v-1.534c4.4.939 7.094 2.389 7.094 3.85 0 1.174-1.986 3.903-20.38 3.903-18.396 0-20.382-2.729-20.382-3.902zM12.92 46.647V39.93c.386.282.79.543 1.21.782.37.19.703.098.997-.274a.732.732 0 0 0-.274-.998 11.184 11.184 0 0 1-5.597-8.585.732.732 0 0 0-.662-.656 3.951 3.951 0 0 1-3.611-3.956V24.67c0-1.07.87-1.939 1.939-1.939h1.546A.732.732 0 0 0 9.199 22v-1.04c3.3.415 7.537.625 12.646.625 4.7 0 8.662-.178 11.835-.529V22c0 .404.328.732.732.732h1.576c1.07 0 1.939.87 1.939 1.939v1.571c0 2.049-1.597 3.788-3.636 3.959a.732.732 0 0 0-.667.656c-.04.4-.104.797-.187 1.19h-5.368a6.43 6.43 0 0 0 .221-1.394.992.992 0 0 0-.988-1.039H16.388a.992.992 0 0 0-.988 1.04 6.44 6.44 0 0 0 6.231 6.14v4.1h-1.264c-.858 0-1.713-.097-2.54-.29a.732.732 0 0 0-.332 1.426c.936.217 1.902.328 2.872.328h1.264v3.586c0 .634.187 1.224.507 1.72h-8.201a1.02 1.02 0 0 1-1.018-1.017zm8.712-11.417v.1a4.979 4.979 0 0 1-4.721-4.252h9.87c-.048.332-.13.655-.244.968h-1.72a3.188 3.188 0 0 0-3.185 3.184zm26.905 10.715c0 .948-.772 1.72-1.72 1.72h-22c-.949 0-1.72-.772-1.72-1.72V35.23c0-.948.771-1.72 1.72-1.72h22c.948 0 1.72.772 1.72 1.72v10.715z"/><path d="M32.025 36.145a4.186 4.186 0 0 0-4.18 4.18 4.186 4.186 0 0 0 4.18 4.181 4.186 4.186 0 0 0 4.18-4.18 4.185 4.185 0 0 0-4.18-4.181zm0 6.897a2.72 2.72 0 0 1-2.717-2.716 2.72 2.72 0 0 1 2.717-2.717 2.72 2.72 0 0 1 2.717 2.717 2.72 2.72 0 0 1-2.717 2.716z"/><path d="M32.025 33.934a6.399 6.399 0 0 0-6.391 6.392 6.399 6.399 0 0 0 6.391 6.39 6.347 6.347 0 0 0 3.617-1.124.732.732 0 1 0-.83-1.205 4.89 4.89 0 0 1-2.787.865 4.933 4.933 0 0 1-4.927-4.927 4.933 4.933 0 0 1 4.927-4.927 4.933 4.933 0 0 1 4.55 6.82.732.732 0 1 0 1.35.565 6.34 6.34 0 0 0 .491-2.458 6.399 6.399 0 0 0-6.39-6.39zM45.961 35.335h-4.447a1.66 1.66 0 0 0-1.659 1.658v.245a1.66 1.66 0 0 0 1.659 1.659h4.447a1.66 1.66 0 0 0 1.659-1.659v-.245a1.66 1.66 0 0 0-1.659-1.658zm.195 1.903a.195.195 0 0 1-.195.194h-4.447a.195.195 0 0 1-.195-.194v-.245c0-.107.087-.194.194-.194h4.448c.108 0 .195.087.195.194v.245z"/></svg>