<svg viewBox="0 0 50 50" fill="#fc981c" xmlns="http://www.w3.org/2000/svg" filter="drop-shadow(0 4px 40px rgba(255,193,101,.5))"><path d="M47.885 14.922c.814-.445 1.449-1.119 1.79-1.905.372-.858.357-1.746-.042-2.5a2.651 2.651 0 0 0-.415-.577V4.384l.128-.025a.738.738 0 0 0 .596-.724V1.152a1.14 1.14 0 0 0-.418-.883 1.139 1.139 0 0 0-.947-.239l-9.575 1.886a1.146 1.146 0 0 0-.923 1.122V5.68a.738.738 0 0 0 .739.739v3.738a3.274 3.274 0 0 0-.441-.074A19.979 19.979 0 0 0 25 4.963C13.951 4.962 4.962 13.95 4.962 25S13.952 45.038 25 45.038c11.049 0 20.038-8.99 20.038-20.038 0-4.389-1.39-8.546-4.02-12.038a2.671 2.671 0 0 0-.723-1.981v-4.84l7.446-1.466v4.44a3.847 3.847 0 0 0-.155-.034c-.859-.161-1.792-.005-2.63.44-.077.04-.15.083-.224.128-.46-.592-.95-1.166-1.46-1.712a.739.739 0 0 0-1.08 1.008c.5.535.977 1.098 1.426 1.679a3.71 3.71 0 0 0-.5.828c-.372.859-.358 1.746.042 2.5.4.753 1.127 1.263 2.047 1.436a3.679 3.679 0 0 0 1.274.014A23.305 23.305 0 0 1 48.523 25c0 12.97-10.552 23.523-23.523 23.523C12.03 48.523 1.477 37.97 1.477 25 1.477 12.03 12.029 1.477 25 1.477c3.506 0 6.878.752 10.024 2.236a.739.739 0 0 0 .63-1.336A24.785 24.785 0 0 0 25 0C18.322 0 12.044 2.6 7.322 7.322A24.837 24.837 0 0 0 0 25c0 6.678 2.6 12.956 7.322 17.678A24.837 24.837 0 0 0 25 50c6.678 0 12.956-2.6 17.678-7.322A24.837 24.837 0 0 0 50 25c0-3.514-.712-6.9-2.115-10.078zm-8.329-11.61l8.909-1.754v1.47l-8.909 1.754v-1.47zM34.24 14.995c.4.753 1.126 1.263 2.046 1.436.221.041.447.062.675.062.275 0 .553-.032.829-.09A15.292 15.292 0 0 1 40.41 25c0 8.497-6.913 15.41-15.41 15.41S9.59 33.497 9.59 25 16.503 9.59 25 9.59c3.34 0 6.493 1.04 9.154 3.013-.326.824-.297 1.67.086 2.392zm3.984-.308c-.543.288-1.134.392-1.665.292-.47-.088-.83-.328-1.014-.677-.185-.348-.182-.781.008-1.22.215-.495.632-.926 1.175-1.214.408-.217.844-.33 1.26-.33.138 0 .273.013.405.038.47.088.83.328 1.014.676.185.349.182.782-.008 1.22-.215.495-.632.927-1.175 1.215zM25 43.561C14.765 43.56 6.44 35.234 6.44 25 6.44 14.765 14.764 6.44 25 6.44c4.17 0 8.177 1.39 11.432 3.938a4.309 4.309 0 0 0-1.469.987A16.943 16.943 0 0 0 25 8.113C15.688 8.113 8.113 15.688 8.113 25c0 9.312 7.575 16.887 16.887 16.887 9.312 0 16.887-7.575 16.887-16.887 0-3.284-.932-6.434-2.701-9.164.5-.312.92-.713 1.233-1.172A18.374 18.374 0 0 1 43.561 25c0 10.234-8.327 18.56-18.561 18.56zm20.48-29.624c-.47-.088-.83-.33-1.015-.678-.185-.348-.182-.78.008-1.22.215-.494.633-.926 1.176-1.214.408-.217.843-.33 1.26-.33.138 0 .273.013.404.038.47.088.83.329 1.015.677.185.348.182.781-.008 1.219-.215.496-.633.927-1.176 1.215-.542.288-1.133.392-1.664.293z"/><path d="M25 15.43c-5.277 0-9.57 4.293-9.57 9.57 0 .732.082 1.462.247 2.169a.738.738 0 1 0 1.438-.334A8.126 8.126 0 0 1 16.906 25c0-4.463 3.631-8.094 8.094-8.094 4.463 0 8.094 3.631 8.094 8.094 0 4.463-3.631 8.094-8.094 8.094a8.115 8.115 0 0 1-6.6-3.41.739.739 0 0 0-1.204.857A9.594 9.594 0 0 0 25 34.57c5.277 0 9.57-4.294 9.57-9.571s-4.293-9.57-9.57-9.57z"/><path d="M27.51 25A2.514 2.514 0 0 0 25 22.49 2.514 2.514 0 0 0 22.49 25 2.514 2.514 0 0 0 25 27.51 2.514 2.514 0 0 0 27.51 25zm-3.544 0a1.035 1.035 0 0 1 2.068 0 1.035 1.035 0 0 1-2.068 0z"/></svg>