<svg viewBox="0 0 50 50" fill="#fc981c" xmlns="http://www.w3.org/2000/svg" filter="drop-shadow(0 4px 40px rgba(255,193,101,.5))"><path d="M11.719 10.938a5.475 5.475 0 0 0 5.469-5.47A5.475 5.475 0 0 0 11.718 0 5.475 5.475 0 0 0 6.25 5.469a5.475 5.475 0 0 0 5.469 5.468zm0-9.376a3.91 3.91 0 0 1 3.906 3.907 3.91 3.91 0 0 1-3.906 3.906 3.91 3.91 0 0 1-3.906-3.906 3.91 3.91 0 0 1 3.906-3.907zM11.719 21.094a.781.781 0 1 0 0-1.563.781.781 0 0 0 0 1.563zM11.719 24.219a.781.781 0 1 0 0-1.563.781.781 0 0 0 0 1.563zM11.719 27.344a.781.781 0 1 0 0-1.563.781.781 0 0 0 0 1.563zM11.719 30.469a.781.781 0 1 0 0-1.563.781.781 0 0 0 0 1.563zM35.938 14.063a5.475 5.475 0 0 0 5.468-5.47 5.475 5.475 0 0 0-5.468-5.468 5.475 5.475 0 0 0-5.47 5.469 5.475 5.475 0 0 0 5.47 5.469zm0-9.376a3.91 3.91 0 0 1 3.906 3.907 3.91 3.91 0 0 1-3.907 3.906 3.91 3.91 0 0 1-3.906-3.906 3.91 3.91 0 0 1 3.907-3.906z"/><path d="M46.688 34.558a6.613 6.613 0 0 0-3.502-4.464 5.058 5.058 0 0 1-2.79-4.314h3.354c.431 0 .781-.349.781-.78V8.593C44.531 3.855 40.676 0 35.938 0c-4.739 0-8.594 3.855-8.594 8.594v9.833l-3.907 3.906v-5.927a3.91 3.91 0 0 0-3.906-3.906h-4.687v.004c-.12 0-.24.023-.35.079L11.72 13.97l-2.776-1.387a.781.781 0 0 0-.35-.08V12.5H3.907A3.91 3.91 0 0 0 0 16.406V30.47c0 .432.35.781.781.781h3.906v14.844A3.91 3.91 0 0 0 8.595 50h6.25a3.91 3.91 0 0 0 3.906-3.906V31.25h3.906c.431 0 .782-.35.782-.781v-1.24l6.578-6.577c.29.664.76 1.23 1.348 1.642l.078.547a5.067 5.067 0 0 1-2.753 5.254 6.61 6.61 0 0 0-3.502 4.464l-3.293 14.488a.786.786 0 0 0 .151.66.788.788 0 0 0 .611.293H49.22a.784.784 0 0 0 .761-.955l-3.292-14.487zM14.062 14.545v1.378l-1.378-.689 1.379-.689zm-4.687 0l1.378.69-1.378.688v-1.378zm12.5 15.143H18.75v-11.72h-1.563v28.126a2.347 2.347 0 0 1-2.343 2.343H12.5v-13.28h.781v-1.563h-3.125v1.562h.781v13.282H8.595a2.347 2.347 0 0 1-2.344-2.344V17.969H4.687v11.718H1.563v-13.28a2.347 2.347 0 0 1 2.344-2.345h3.906v3.126a.783.783 0 0 0 1.131.699l2.776-1.389 2.776 1.388a.775.775 0 0 0 .76-.034.783.783 0 0 0 .37-.665v-3.125h3.906a2.347 2.347 0 0 1 2.344 2.344v13.282zm1.563-5.146l5.24-5.24a.781.781 0 0 0 .228-.552V8.594a7.04 7.04 0 0 1 7.032-7.031 7.04 7.04 0 0 1 7.03 7.03V24.22h-2.367a3.892 3.892 0 0 0 1.587-3.125 3.91 3.91 0 0 0-3.907-3.907c-.848 0-1.67.284-2.343.797a3.873 3.873 0 0 0-2.344-.797c-2.03 0-3.685 1.564-3.87 3.547l-6.287 6.286v-2.478zm10.156-5.792c.675 0 1.298.288 1.755.81.297.34.88.34 1.177 0a2.309 2.309 0 0 1 1.755-.81 2.347 2.347 0 0 1 2.344 2.344 2.347 2.347 0 0 1-2.344 2.343 2.309 2.309 0 0 1-1.755-.81.782.782 0 0 0-1.177 0c-.457.522-1.08.81-1.755.81a2.347 2.347 0 0 1-2.344-2.343 2.347 2.347 0 0 1 2.344-2.344zm-9.959 29.688l3.076-13.533a5.052 5.052 0 0 1 2.678-3.413 6.614 6.614 0 0 0 3.621-6.55c.192.028.384.058.584.058.848 0 1.67-.284 2.343-.796a3.873 3.873 0 0 0 2.344.796c.2 0 .392-.03.585-.06a6.613 6.613 0 0 0 3.62 6.551 5.052 5.052 0 0 1 2.679 3.413l3.075 13.533H23.635z"/></svg>