<svg viewBox="0 0 55 55" fill="#fc981c" xmlns="http://www.w3.org/2000/svg" filter="drop-shadow(0 4px 40px rgba(255,193,101,.5))"><path d="M46.99 37.137H8.01a.834.834 0 0 1-.833-.834V25.05a3.443 3.443 0 0 1 3.438-3.44h33.767a3.443 3.443 0 0 1 3.44 3.44v11.253a.83.83 0 0 1-.832.834zM8.843 35.47h37.314V25.05c0-.978-.797-1.773-1.774-1.773H10.617c-.977 0-1.772.796-1.772 1.773v10.42h-.002z"/><path d="M44.382 50.813H10.617a3.443 3.443 0 0 1-3.439-3.44V36.12c0-.46.374-.833.834-.833h38.98c.46 0 .833.373.833.833v11.253a3.446 3.446 0 0 1-3.443 3.44zM8.843 36.953v10.42c0 .979.797 1.774 1.772 1.774h33.767c.978 0 1.773-.797 1.773-1.774v-10.42H8.843z"/><path d="M13.383 55a.834.834 0 0 1-.77-1.152l1.734-4.186a.834.834 0 0 1 1.54.637l-1.734 4.186a.833.833 0 0 1-.77.515zM41.615 55a.833.833 0 0 1-.77-.515l-1.732-4.187a.833.833 0 0 1 1.54-.636l1.732 4.186a.833.833 0 0 1-.77 1.152zM29.448 28.475H25.55a.834.834 0 0 1 0-1.667h3.898a.834.834 0 0 1 0 1.667zM29.448 42.152H25.55a.834.834 0 0 1 0-1.667h3.898a.834.834 0 0 1 0 1.667zM28.75 23.277H17.667a.834.834 0 0 1-.834-.834v-3.376c0-.46.374-.834.834-.834H28.75c.46 0 .834.374.834.834v3.375a.834.834 0 0 1-.834.835zM18.498 21.61h9.417V19.9H18.5v1.71zM30.528 10.605H15.885a.834.834 0 0 1-.793-1.087L17.952.58a.83.83 0 0 1 .793-.58h8.923c.364 0 .684.235.795.58l2.86 8.938c.08.254.035.53-.12.745a.842.842 0 0 1-.675.342zM17.025 8.938h12.362L27.06 1.667h-7.707l-2.328 7.271z"/><path d="M23.207 19.9a.834.834 0 0 1-.834-.833V9.772a.834.834 0 0 1 1.667 0v9.295a.831.831 0 0 1-.833.833zM27.5 13.465a.834.834 0 0 1-.833-.833v-2.86a.834.834 0 0 1 1.666 0v2.86c0 .46-.373.833-.833.833z"/></svg>