<svg viewBox="0 0 50 50" fill="#fc981c" xmlns="http://www.w3.org/2000/svg" filter="drop-shadow(0 4px 40px rgba(255,193,101,.5))"><path d="M41.616 32.468a3.003 3.003 0 0 0 2.585 1.48h.256a3.004 3.004 0 0 0 3.001-3V19.546a3.004 3.004 0 0 0-3-3.002H44.2c-.572 0-1.107.161-1.562.44L42.64.736a.736.736 0 1 0-1.472 0v1.746H15.884a.736.736 0 1 0 0 1.473h25.282v13.627H8.89V4.006a.754.754 0 0 0 .008-.05h4.042a.736.736 0 0 0 0-1.474H8.902V.736a.736.736 0 1 0-1.473 0l-.012 16.226a2.98 2.98 0 0 0-1.523-.416h-.256a3.004 3.004 0 0 0-3.001 3v11.401a3.004 3.004 0 0 0 3 3.001h.257c1.08 0 2.03-.574 2.558-1.433l12.327 6.721-17.204 9.381A.737.737 0 0 0 3.928 50h5.344a.74.74 0 0 0 .353-.09l15.366-8.378 15.365 8.378c.108.06.229.09.352.09h5.345a.736.736 0 0 0 .353-1.383L29.2 39.237l12.413-6.769h.002zm1.057-12.922a1.53 1.53 0 0 1 1.528-1.528h.256a1.53 1.53 0 0 1 1.528 1.529v11.4a1.53 1.53 0 0 1-1.528 1.528h-.256a1.53 1.53 0 0 1-1.528-1.528v-11.4zm-1.432-.491c-.027.16-.04.324-.04.491v4.265H30.094a.736.736 0 0 0 0 1.472h11.071v5.711h-5.082l-.026.002H13.922l-.025-.002H8.894V25.283H27.15a.736.736 0 1 0 0-1.472H8.895v-4.265c0-.167-.015-.331-.041-.491H41.24zM16.788 32.468h16.404l-8.201 4.472-8.203-4.472zm-10.894.007h-.256a1.53 1.53 0 0 1-1.528-1.528v-11.4a1.53 1.53 0 0 1 1.528-1.529h.256a1.53 1.53 0 0 1 1.528 1.529v4.913a.728.728 0 0 0-.005.087v6.51a1.53 1.53 0 0 1-1.523 1.418zm3.191 16.053H6.816l15.502-8.453 1.134.618-14.367 7.835zm31.81 0l-29.452-16.06h2.27l29.452 16.06h-2.27zM27.674 38.392l-.01.006-1.134-.619 9.74-5.31h2.268l-10.864 5.923z"/><path d="M31.4 8.995a.736.736 0 0 0-.595-.501l-3.38-.491-1.51-3.063a.738.738 0 0 0-1.321 0l-1.512 3.062-3.38.492a.737.737 0 0 0-.408 1.256l2.446 2.383-.577 3.367a.736.736 0 0 0 1.068.776l3.023-1.59 3.023 1.59a.738.738 0 0 0 1.068-.777l-.577-3.366 2.445-2.383a.736.736 0 0 0 .187-.755zm-3.937 2.354a.737.737 0 0 0-.212.652l.39 2.277-2.044-1.075a.735.735 0 0 0-.686 0l-2.045 1.075.391-2.277a.736.736 0 0 0-.212-.652l-1.654-1.612 2.286-.333a.737.737 0 0 0 .555-.402l1.022-2.072 1.022 2.072a.737.737 0 0 0 .555.402l2.286.333-1.654 1.612z"/></svg>