<svg viewBox="0 0 50 50" fill="#fc981c" xmlns="http://www.w3.org/2000/svg" filter="drop-shadow(0 4px 40px rgba(255,193,101,.5))"><path d="M49.871 24.556A29.228 29.228 0 0 0 25.833 10.86V4.167h-1.667v6.693A29.228 29.228 0 0 0 .128 24.556a.834.834 0 0 0 0 .888A29.228 29.228 0 0 0 24.166 39.14v6.693h1.667V39.14a29.228 29.228 0 0 0 24.038-13.696.833.833 0 0 0 0-.888zM1.825 25a27.583 27.583 0 0 1 14.358-11.07 14.138 14.138 0 0 0-5.306 10.237h-6.71v1.666h6.71a14.138 14.138 0 0 0 5.306 10.236A27.583 27.583 0 0 1 1.824 25zm22.342 7.5v4.958a12.5 12.5 0 0 1-11.624-11.625H17.5v-1.666h-4.958a12.5 12.5 0 0 1 11.624-11.625V17.5h1.667v-4.958a12.5 12.5 0 0 1 11.624 11.625H32.5v1.666h4.957a12.5 12.5 0 0 1-11.624 11.625V32.5h-1.667zm24.01-7.5a27.583 27.583 0 0 1-14.359 11.07 14.138 14.138 0 0 0 5.307-10.237h6.71v-1.666h-6.71a14.138 14.138 0 0 0-5.307-10.236A27.583 27.583 0 0 1 48.176 25z"/><path d="M25 19.167A5.833 5.833 0 0 0 19.166 25 5.84 5.84 0 0 0 25 30.833a5.833 5.833 0 1 0 0-11.666zm0 10a4.167 4.167 0 1 1 0-8.334 4.167 4.167 0 0 1 0 8.334zM5 4.167A.833.833 0 0 0 4.167 5v6.667h1.666V5.833h5.833V4.167H5zM45 4.167h-6.667v1.666h5.834v5.834h1.666V5A.833.833 0 0 0 45 4.167zM44.167 38.333v5.834h-5.834v1.666H45c.46 0 .833-.373.833-.833v-6.667h-1.666zM5.833 44.167v-5.834H4.166V45c0 .46.374.833.834.833h6.666v-1.666H5.833z"/></svg>