<svg viewBox="0 0 30 30" fill="#fff" xmlns="http://www.w3.org/2000/svg" filter="drop-shadow(0 15px 30px #bb6800)"><path d="M27.689 18.846a.747.747 0 0 0-.747.747v6.634A2.244 2.244 0 0 1 24.7 28.47H3.736a2.244 2.244 0 0 1-2.242-2.242V6.757a2.244 2.244 0 0 1 2.242-2.241h6.634a.747.747 0 1 0 0-1.495H3.736A3.74 3.74 0 0 0 0 6.757v19.47a3.74 3.74 0 0 0 3.736 3.736H24.7a3.74 3.74 0 0 0 3.736-3.736v-6.634a.747.747 0 0 0-.747-.747z"/><path d="M28.14 1.099a3.362 3.362 0 0 0-4.755 0l-13.33 13.33a.747.747 0 0 0-.191.329L8.11 21.085a.747.747 0 0 0 .919.92l6.328-1.754a.747.747 0 0 0 .33-.191L29.016 6.73a3.366 3.366 0 0 0 0-4.755l-.877-.877zM11.683 14.914l10.91-10.91 3.518 3.519-10.91 10.91-3.518-3.519zm-.703 1.41l2.811 2.812-3.888 1.077 1.077-3.889zm16.98-10.65l-.792.792-3.519-3.518.793-.793c.73-.729 1.912-.729 2.641 0l.877.877a1.87 1.87 0 0 1 0 2.642z"/></svg>