<svg viewBox="0 0 30 30" fill="#fff" xmlns="http://www.w3.org/2000/svg" filter="drop-shadow(0 15px 30px #bb6800)"><path d="M15.192 11.134a3.06 3.06 0 1 0 0 6.12 3.06 3.06 0 0 0 0-6.12zm0 4.663a1.603 1.603 0 1 1 0-3.206 1.603 1.603 0 0 1 0 3.206z"/><path d="M27.396 4.14L7.506 1.88a2.732 2.732 0 0 0-2.15.62A2.769 2.769 0 0 0 4.3 4.394l-.365 2.987h-1.13c-1.602 0-2.804 1.421-2.804 3.024v14.9a2.769 2.769 0 0 0 2.805 2.842h20c1.603 0 3.06-1.239 3.06-2.842v-.583a3.643 3.643 0 0 0 1.385-.582c.59-.498.968-1.201 1.056-1.968l1.676-14.79a2.95 2.95 0 0 0-2.587-3.243zM24.41 25.304c0 .802-.801 1.385-1.603 1.385h-20a1.312 1.312 0 0 1-1.348-1.385V22.61l5.647-4.153a1.749 1.749 0 0 1 2.258.11l3.971 3.497c.603.506 1.362.79 2.15.801a3.315 3.315 0 0 0 1.748-.473l7.177-4.153v7.067zm0-8.78l-7.942 4.627a1.858 1.858 0 0 1-2.15-.182l-4.007-3.534a3.242 3.242 0 0 0-4.043-.145l-4.809 3.497V10.405c0-.801.546-1.566 1.348-1.566h20a1.676 1.676 0 0 1 1.603 1.566v6.12zm4.118-9.34l-.001.014-1.712 14.791c.002.384-.172.747-.474.984-.146.145-.474.218-.474.291v-12.86a3.133 3.133 0 0 0-3.06-3.023H5.392L5.72 4.54c.071-.368.264-.701.547-.947.32-.221.706-.324 1.093-.292l19.854 2.295a1.457 1.457 0 0 1 1.313 1.589z"/></svg>