<svg viewBox="0 0 30 30" fill="#fff" xmlns="http://www.w3.org/2000/svg" filter="drop-shadow(0 15px 30px #bb6800)"><path d="M28.919.274a.585.585 0 1 0-.96.671.585.585 0 0 0 .96-.671zM28.775 18.892a.586.586 0 1 0-.672.959.586.586 0 0 0 .672-.96zM1.897.13a.585.585 0 1 0-.672.959.585.585 0 0 0 .672-.959zM2.041 19.036a.586.586 0 1 0-.96.67.586.586 0 0 0 .96-.67zM21.643 2.539a9.891 9.891 0 0 0-3.526-2.04 9.988 9.988 0 0 0-4.251-.436c-2.122.235-4.16 1.194-5.74 2.7C6.543 4.27 5.49 6.26 5.163 8.367c-.29 1.866-.064 3.75.654 5.45a9.996 9.996 0 0 0 3.215 4.108c.435.326.695.846.695 1.39V24.677a1.81 1.81 0 0 0 1.262 1.723c.11.905.514 1.743 1.17 2.4a4.077 4.077 0 0 0 2.9 1.2 4.107 4.107 0 0 0 4.075-3.645 1.821 1.821 0 0 0 1.14-1.678V19.316c0-.544.257-1.063.69-1.386a10.063 10.063 0 0 0 2.907-3.44 9.826 9.826 0 0 0 1.09-4.529 9.977 9.977 0 0 0-3.318-7.422zm-6.584 26.29a2.912 2.912 0 0 1-2.072-.858 2.912 2.912 0 0 1-.8-1.487h5.742a2.935 2.935 0 0 1-2.87 2.344zm4.043-4.152a.638.638 0 0 1-.579.633h-.007a.523.523 0 0 1-.05.003h-6.932a.636.636 0 0 1-.636-.636v-.712h8.204v.712zm0-1.884h-8.203v-1.348h8.203v1.348zM15 12.688c.604 0 1.207-.14 1.758-.417v8.003h-3.516V12.27c.551.277 1.154.417 1.758.417zm-1.616-1.7L15 7.756l1.616 3.232a2.735 2.735 0 0 1-3.232 0zm6.877 6.004a2.914 2.914 0 0 0-1.16 2.324v.958H17.93v-9.14a.61.61 0 0 0-.004-.064l-.003-.018a.625.625 0 0 0-.007-.045l-.005-.02a.608.608 0 0 0-.013-.043l-.006-.017a.56.56 0 0 0-.02-.047l-.004-.009-.005-.009v-.002l-2.339-4.676a.586.586 0 0 0-1.048 0l-2.338 4.676-.001.002-.005.01-.003.008a.581.581 0 0 0-.02.047l-.007.017a.561.561 0 0 0-.025.108l-.003.018a.583.583 0 0 0-.004.063v9.14H10.9v-.957c0-.911-.435-1.781-1.164-2.328-2.611-1.956-3.92-5.19-3.414-8.44.594-3.815 3.821-6.893 7.674-7.32 2.54-.281 4.98.494 6.866 2.184a8.803 8.803 0 0 1 2.928 6.55 8.712 8.712 0 0 1-3.528 7.03z"/><path d="M20.079 4.284a.586.586 0 1 0-.782.873 6.458 6.458 0 0 1 2.148 4.804.586.586 0 1 0 1.172 0 7.63 7.63 0 0 0-2.538-5.677zM3.282 9.375H.586a.586.586 0 1 0 0 1.172h2.696a.586.586 0 1 0 0-1.172zM29.414 9.375h-2.696a.586.586 0 0 0 0 1.172h2.696a.586.586 0 1 0 0-1.172zM5.88 16.347a.586.586 0 0 0-.815-.144l-1.92 1.344a.586.586 0 0 0 .672.96l1.92-1.344a.586.586 0 0 0 .144-.816zM27 1.56a.586.586 0 0 0-.817-.145l-1.92 1.344a.586.586 0 0 0 .672.96l1.92-1.344A.586.586 0 0 0 27 1.56zM5.737 2.76l-1.92-1.344a.586.586 0 1 0-.672.96l1.92 1.344a.583.583 0 0 0 .816-.144.586.586 0 0 0-.144-.816zM26.855 17.547l-1.92-1.344a.586.586 0 0 0-.672.96l1.92 1.344a.583.583 0 0 0 .817-.144.586.586 0 0 0-.145-.816z"/></svg>