<svg viewBox="0 0 30 30" fill="#fff" xmlns="http://www.w3.org/2000/svg" filter="drop-shadow(0 15px 30px #bb6800)"><path d="M25.604 4.398A14.9 14.9 0 0 0 15 0 14.893 14.893 0 0 0 4.394 4.392C-1.072 9.858-1.468 18.59 3.4 24.509c-.672 1.376-1.47 2.293-2.362 2.733-.547.27-.855.86-.767 1.464.094.61.56 1.08 1.169 1.175.333.05.69.081 1.062.081 1.84 0 3.775-.634 5.39-1.746A15.014 15.014 0 0 0 15 30c4.008 0 7.772-1.558 10.605-4.392a14.904 14.904 0 0 0 4.392-10.605c0-4.002-1.558-7.772-4.392-10.605zm-1.2 20.01A13.217 13.217 0 0 1 15 28.304c-2.375 0-4.706-.635-6.735-1.829a.877.877 0 0 0-.427-.119.883.883 0 0 0-.522.176C5.393 28.02 3.457 28.24 2.61 28.26c1.012-.754 1.86-1.923 2.57-3.55a.854.854 0 0 0-.145-.905C.385 18.553.63 10.55 5.594 5.585a13.217 13.217 0 0 1 9.405-3.895c3.556 0 6.892 1.382 9.405 3.895 5.19 5.196 5.19 13.64 0 18.823z"/><path d="M18.806 8.13a5.047 5.047 0 0 0-3.593 1.489l-.214.213-.214-.213a5.047 5.047 0 0 0-3.593-1.49c-1.351 0-2.627.529-3.582 1.484A5.011 5.011 0 0 0 6.128 13.2c0 1.357.534 2.626 1.489 3.588l6.779 6.779a.853.853 0 0 0 .597.25.846.846 0 0 0 .596-.244l6.798-6.773a5.043 5.043 0 0 0 1.49-3.587 5.067 5.067 0 0 0-1.483-3.594 5.043 5.043 0 0 0-3.588-1.49zm2.381 7.47l-6.194 6.17-6.183-6.182a3.36 3.36 0 0 1-.992-2.394c0-.905.352-1.753.986-2.388a3.355 3.355 0 0 1 2.388-.986 3.36 3.36 0 0 1 2.393.993l.817.816a.846.846 0 0 0 1.2 0l.81-.81a3.36 3.36 0 0 1 2.394-.993c.899 0 1.747.352 2.388.993.64.64.992 1.489.986 2.387a3.36 3.36 0 0 1-.993 2.394z"/></svg>