<svg viewBox="0 0 60 60" fill="#fc981c" xmlns="http://www.w3.org/2000/svg" filter="drop-shadow(0 4px 40px rgba(255,193,101,.5))"><path d="M47.733 23.245a17.775 17.775 0 0 0-6.251-1.14c-9.823.006-17.782 7.974-17.776 17.797a17.787 17.787 0 0 0 1.14 6.254l1.847-.697c-3.072-8.16 1.053-17.265 9.212-20.336 8.16-3.072 17.264 1.052 20.336 9.212 3.072 8.16-1.052 17.264-9.212 20.336a15.786 15.786 0 0 1-11.124 0l-.697 1.848c9.188 3.458 19.44-1.186 22.9-10.374 3.458-9.189-1.187-19.441-10.375-22.9z"/><path d="M45.919 32.181a8.888 8.888 0 0 0-12.14 12.14l1.71-.987a6.913 6.913 0 1 1 2.537 2.537l-.988 1.71a8.888 8.888 0 0 0 8.881-15.4z"/><path d="M46.765 27.14c-7.043-2.927-15.126.41-18.054 7.453a13.811 13.811 0 0 0 .009 10.622l1.823-.763c-2.515-6.035.34-12.965 6.374-15.48 6.036-2.514 12.966.34 15.48 6.375 2.515 6.035-.339 12.966-6.374 15.48a11.838 11.838 0 0 1-9.099.003l-.76 1.817c7.044 2.928 15.127-.409 18.054-7.453 2.928-7.043-.409-15.126-7.453-18.054z"/><path d="M41.482 35.932a3.95 3.95 0 0 0-3.95 3.95c.003.703.197 1.392.56 1.994l-5.827 5.827-4.412-.888a.988.988 0 0 0-.997.395l-4.938 6.913a.987.987 0 0 0 .494 1.51l.75.25a19.805 19.805 0 0 1-8.178 1.775H2.966a.988.988 0 0 1 0-1.975h13.827a2.963 2.963 0 0 0 0-5.925H2.966a.988.988 0 0 1 0-1.975H9.88a5.926 5.926 0 0 0 5.86-5.1 2.956 2.956 0 0 0 2.04-2.801v-.987a2.963 2.963 0 0 0 2.963-2.963V28.76c7.498-3.273 10.924-12.004 7.651-19.503C25.122 1.76 16.39-1.665 8.892 1.607 1.394 4.879-2.032 13.611 1.24 21.109a14.814 14.814 0 0 0 7.652 7.652v7.17a2.963 2.963 0 0 0 2.963 2.964v.987a2.963 2.963 0 0 0 1.896 2.756 3.955 3.955 0 0 1-3.871 3.17H2.966a2.963 2.963 0 1 0 0 5.925h13.827a.988.988 0 0 1 0 1.975H2.966a2.963 2.963 0 0 0 0 5.926h12.018a21.78 21.78 0 0 0 10.136-2.51l.611 1.834a.988.988 0 0 0 1.511.49l6.913-4.937a.988.988 0 0 0 .395-.996l-.884-4.42 5.827-5.827c.6.364 1.287.559 1.989.564a3.95 3.95 0 0 0 0-7.9zm-25.677 3.95a.988.988 0 0 1-1.975 0v-.987h1.975v.987zm2.963-5.925h-7.9v-.988h7.9v.988zm0-2.963h-7.9v-1.539c1.285.362 2.614.547 3.95.551a14.742 14.742 0 0 0 3.95-.55v1.538zm-4.608-9.876h1.312l-.576 6.913h-.158l-.578-6.913zM1.979 15.193C1.97 8.103 7.712 2.347 14.802 2.339c7.09-.008 12.846 5.733 12.854 12.823A12.838 12.838 0 0 1 16.89 27.848l.561-6.729h2.303a3.95 3.95 0 1 0-3.95-4.032l-.168 2.057h-1.642l-.165-1.975a3.95 3.95 0 1 0-3.95 3.95h2.3l.562 6.73A12.847 12.847 0 0 1 1.979 15.192zm15.637 3.95l.164-1.975a1.975 1.975 0 1 1 1.975 1.975h-2.139zm-5.6 0H9.88a1.975 1.975 0 1 1 0-3.95 2 2 0 0 1 1.975 2.025v.032l.16 1.893zm-.161 17.776a.988.988 0 0 1-.988-.987h7.9a.988.988 0 0 1-.987.987h-5.925zm13.56 17.635l-1.117-.373 3.79-5.305 2.503.5-5.177 5.178zm1.768 2.512l-.372-1.115 5.176-5.176.5 2.5-5.304 3.79zm14.299-15.209a1.94 1.94 0 0 1-.505-.074l1.203-1.203-1.396-1.396-1.203 1.203a1.94 1.94 0 0 1-.074-.505 1.975 1.975 0 1 1 1.975 1.975zM36.482 15.709a19.18 19.18 0 0 0 .062-1.504A21.597 21.597 0 0 0 32.65 1.789l-1.62 1.13a19.364 19.364 0 0 1 3.342 13.936.988.988 0 0 0 1.233 1.085 22.918 22.918 0 0 1 17.235 2.271l.988-1.71a24.872 24.872 0 0 0-17.345-2.792zM57.813 21.365l-1.307 1.481c.712.628 1.385 1.3 2.013 2.013L60 23.55a25.078 25.078 0 0 0-2.187-2.185z"/></svg>