<svg viewBox="0 0 41.796722 60.999924" fill="#fc981c" stroke="#fc981c" xmlns="http://www.w3.org/2000/svg" filter="drop-shadow(0 4px 40px rgba(255,193,101,.5))"><path d="M39.065 11.612a.894.894 0 0 0-1.591.816 18.407 18.407 0 0 1 2.035 8.47c0 4.08-1.295 7.952-3.746 11.2a7.957 7.957 0 0 0-1.577 4.77v.113a4.42 4.42 0 0 1-4.415 4.416h-7.979v-11.32c3.226-.438 5.722-3.209 5.722-6.553a.894.894 0 0 0-1.789 0 4.833 4.833 0 0 1-4.827 4.827 4.833 4.833 0 0 1-4.827-4.827.894.894 0 1 0-1.788 0c0 3.344 2.496 6.115 5.721 6.553v11.32h-7.978a4.42 4.42 0 0 1-4.416-4.416v-.115c0-1.739-.564-3.413-1.632-4.843a18.464 18.464 0 0 1-3.69-10.944c-.047-4.98 1.869-9.686 5.393-13.251 3.523-3.563 8.205-5.53 13.183-5.54h.035c5.855 0 11.25 2.673 14.807 7.336a.894.894 0 0 0 1.422-1.084 20.58 20.58 0 0 0-7.045-5.86A20.171 20.171 0 0 0 20.86.5C15.402.51 10.27 2.666 6.41 6.57 2.548 10.477.45 15.635.5 21.096a20.237 20.237 0 0 0 4.046 11.997c.835 1.118 1.276 2.423 1.276 3.773v.115c0 1.907.866 3.614 2.223 4.753a3.784 3.784 0 0 0-2.223 3.443 3.786 3.786 0 0 0 2.78 3.644 3.757 3.757 0 0 0-.656 2.128 3.784 3.784 0 0 0 3.78 3.78h2.537c.438 3.254 3.231 5.77 6.604 5.77 3.372 0 6.165-2.517 6.603-5.77h2.538a3.784 3.784 0 0 0 3.78-3.78 3.76 3.76 0 0 0-.657-2.128 3.786 3.786 0 0 0 2.78-3.644c0-1.513-.894-2.82-2.181-3.424a6.193 6.193 0 0 0 2.244-4.771v-.114c0-1.343.432-2.655 1.216-3.694A20.22 20.22 0 0 0 41.297 20.9c0-3.27-.751-6.395-2.232-9.287zm-18.198 47.1a4.885 4.885 0 0 1-4.794-3.984h9.588a4.885 4.885 0 0 1-4.794 3.984zM32.13 43.185c1.099 0 1.992.894 1.992 1.992a1.994 1.994 0 0 1-1.992 1.992H16.569a.894.894 0 1 0 0 1.788h13.439c1.098 0 1.992.893 1.992 1.992a1.994 1.994 0 0 1-1.992 1.991H11.725a1.994 1.994 0 0 1-1.991-1.991c0-1.099.893-1.992 1.991-1.992h1.269a.894.894 0 0 0 0-1.788H9.602a1.994 1.994 0 0 1-1.992-1.992c0-1.099.894-1.992 1.992-1.992h22.529z"/></svg>