<svg viewBox="0 0 60 60" fill="#fc981c" stroke="#fc981c" xmlns="http://www.w3.org/2000/svg" filter="drop-shadow(0 4px 40px rgba(255,193,101,.5))"><path d="M49.512 31.712a.873.873 0 0 0-.873.874 1.11 1.11 0 0 1-2.218 0 .873.873 0 1 0-1.746 0 2.858 2.858 0 0 0 2.855 2.855 2.858 2.858 0 0 0 2.855-2.855.873.873 0 0 0-.873-.874z"/><path d="M57.708 31.855l-2.457-.787a1.028 1.028 0 0 1-.664-.672 15.846 15.846 0 0 0-2.323-4.596c-.467-.64-.985-1.25-1.552-1.83.362-1.591.56-3.391.534-4.947-.037-2.224-.481-3.53-1.36-3.99-.472-.247-1.911-1-9.7 2.565a2.841 2.841 0 0 0-.516.308 33.873 33.873 0 0 0-1.602-.39l-.198-.04c.631-1.379 1-2.876 1.07-4.422a.873.873 0 1 0-1.745-.078 10.144 10.144 0 0 1-2.97 6.734 10.108 10.108 0 0 1-3.678 2.35 25.324 25.324 0 0 0-7.028 0 10.109 10.109 0 0 1-3.678-2.35 10.105 10.105 0 0 1-2.98-7.192c0-2.717 1.058-5.272 2.98-7.193a10.105 10.105 0 0 1 7.192-2.98c2.717 0 5.271 1.059 7.192 2.98.773.772 1.41 1.653 1.897 2.619a.873.873 0 1 0 1.56-.786A11.903 11.903 0 0 0 35.46 4.09 11.84 11.84 0 0 0 27.033.6a11.84 11.84 0 0 0-8.427 3.49 11.84 11.84 0 0 0-3.491 8.428 11.84 11.84 0 0 0 3.49 8.427c.65.65 1.357 1.208 2.104 1.675-.543.142-1.081.3-1.614.478a.873.873 0 0 0 .553 1.657 23.434 23.434 0 0 1 14.77 0 .872.872 0 0 0 1.105-.552.873.873 0 0 0-.551-1.105 24.61 24.61 0 0 0-1.615-.478 11.91 11.91 0 0 0 3.625-3.543 33.168 33.168 0 0 1 1.65.364c-.01.038-.02.076-.027.115-.426 2.02-.398 3.808.082 5.312.432 1.352 1.21 2.447 2.316 3.255 1.302.953 2.874 1.364 4.298 1.364 1.071 0 2.06-.233 2.785-.644.82-.465 1.508-1.445 2.053-2.915.251.293.49.594.714.902a14.1 14.1 0 0 1 2.068 4.09c.271.86.943 1.537 1.797 1.811l2.458.787c.645.207 1.078.8 1.078 1.478v4.075c0 .677-.433 1.27-1.078 1.477l-3.96 1.268a2.698 2.698 0 0 0-1.51 1.226c-1.555 2.689-4.001 4.914-7.27 6.613-.377.197-.639.548-.717.965l-1.269 6.715a.393.393 0 0 1-.385.319h-4.123a.393.393 0 0 1-.386-.32l-.702-3.71a1.372 1.372 0 0 0-1.56-1.104 36.501 36.501 0 0 1-5.44.405c-1.364 0-2.71-.076-4.002-.226a1.383 1.383 0 0 0-1.513 1.11l-.668 3.526a.393.393 0 0 1-.385.319h-4.124a.393.393 0 0 1-.386-.322l-1.22-6.343a1.37 1.37 0 0 0-.705-.953c-5.572-2.974-8.517-7.943-8.517-14.37 0-3.247.71-6.118 2.112-8.534 1.307-2.255 3.216-4.119 5.675-5.54a.873.873 0 0 0-.874-1.513c-4.768 2.758-7.643 7.012-8.434 12.416l-.252-.024a4.347 4.347 0 0 0-.32-1.742c-.507-1.26-1.547-2.168-2.651-2.316-.87-.116-1.698.253-2.273 1.012-.833 1.101-.697 1.973-.437 2.51.44.906 1.57 1.547 3.447 1.95a3.45 3.45 0 0 1-.17.233c-1.11 1.39-2.415 1.697-3.263 1.726a.917.917 0 0 0-.894.912v.004c0 .49.387.89.876.912.063.003.128.005.197.005 1.072 0 2.795-.396 4.449-2.47.261-.328.474-.674.638-1.03.164.018.323.034.474.048-.03.472-.046.953-.046 1.441 0 3.636.867 6.878 2.576 9.636 1.577 2.543 3.833 4.626 6.71 6.191l1.187 6.166a2.14 2.14 0 0 0 2.101 1.741h4.124a2.14 2.14 0 0 0 2.101-1.74l.604-3.19c1.253.134 2.55.201 3.863.201 1.8 0 3.598-.125 5.35-.373l.636 3.362a2.14 2.14 0 0 0 2.101 1.74h4.124a2.14 2.14 0 0 0 2.101-1.74l1.235-6.539c3.488-1.845 6.118-4.268 7.817-7.204a.955.955 0 0 1 .53-.437l3.96-1.269A3.288 3.288 0 0 0 60 39.071v-4.076c0-1.439-.921-2.7-2.292-3.14zm-8.34-10.378c-.336 2.874-1.237 5.333-2.143 5.846-1.03.583-3.407.696-5.192-.61-1.786-1.307-2.381-3.657-1.72-6.797.067-.316.29-.588.6-.73 4.371-2.001 6.892-2.655 7.828-2.655.141 0 .246.014.317.042.28.3.65 2.004.31 4.904zM2.453 31.172c-.09-.186.123-.514.258-.693.214-.283.412-.34.56-.34.032 0 .062.002.089.005.401.054.964.496 1.262 1.237.07.174.161.463.182.823-1.208-.25-2.148-.611-2.351-1.032z"/><path d="M27.881 11.517V8.392c1.078.077 1.478.57 1.847.57.462 0 .678-.585.678-.878 0-.754-1.478-1.077-2.525-1.108V6.56c0-.184-.23-.354-.462-.354-.262 0-.446.17-.446.354v.447c-1.463.154-2.925.923-2.925 2.863 0 1.97 1.54 2.524 2.925 3.017v3.617c-1.57-.123-1.986-1.2-2.494-1.2-.385 0-.708.508-.708.877 0 .754 1.293 1.786 3.202 1.817v.477c0 .184.185.354.446.354.231 0 .462-.17.462-.354v-.524c1.663-.23 2.802-1.277 2.802-3.17 0-2.094-1.463-2.772-2.802-3.264zm-.816-.292c-.816-.308-1.478-.632-1.478-1.509 0-.8.616-1.185 1.478-1.293v2.802zm.724 5.249v-3.248c.754.323 1.354.754 1.354 1.723 0 .878-.523 1.37-1.354 1.525z"/></svg>