<svg viewBox="0 0 60 60" fill="#fc981c" stroke="#fc981c" xmlns="http://www.w3.org/2000/svg" filter="drop-shadow(0 4px 40px rgba(255,193,101,.5))"><path d="M57.248 21.304h-5.902L48.362 9.603a2.755 2.755 0 0 0-3.346-1.986L38.213 9.35a.857.857 0 0 0 .424 1.662l6.802-1.735a1.038 1.038 0 0 1 1.261.749l.33 1.296L2.078 22.786l-.33-1.296a1.03 1.03 0 0 1 .113-.786 1.03 1.03 0 0 1 .635-.475l30.921-7.885a.857.857 0 0 0-.423-1.662L2.072 18.567a2.755 2.755 0 0 0-1.987 3.346l6.34 24.866a2.756 2.756 0 0 0 3.347 1.987l.406-.104v1.055a2.755 2.755 0 0 0 2.752 2.752h44.318A2.755 2.755 0 0 0 60 49.717V24.055a2.755 2.755 0 0 0-2.752-2.751zm-47.07 25.589l-.83.211a1.038 1.038 0 0 1-1.26-.748L4.206 31.135l5.972-1.523v17.28zm0-22.838v3.788l-6.395 1.63L2.5 24.448l8.284-2.112a2.738 2.738 0 0 0-.607 1.72zm39.398-2.751h-6.815l6.399-1.632.416 1.632zm-2.121-8.32l1.281 5.027-12.915 3.293H14.828l32.627-8.32zm9.793 37.77H12.93a1.038 1.038 0 0 1-1.037-1.037V24.056c0-.572.465-1.037 1.037-1.037h44.318c.572 0 1.037.465 1.037 1.037v25.661c0 .572-.465 1.037-1.037 1.037z"/><path d="M34.141 42.41h-18.68a.857.857 0 1 0 0 1.714h18.68a.857.857 0 1 0 0-1.715zM48.428 27.334c-1.231 0-2.37.397-3.3 1.07a5.613 5.613 0 0 0-3.303-1.07 5.65 5.65 0 0 0-5.644 5.644 5.65 5.65 0 0 0 5.644 5.644 5.612 5.612 0 0 0 3.303-1.07 5.612 5.612 0 0 0 3.3 1.07 5.65 5.65 0 0 0 5.644-5.644 5.65 5.65 0 0 0-5.644-5.644zm-5.637 5.912c0 .021.002.043.004.066.004.071.01.143.016.214l.005.05a5.564 5.564 0 0 0 1.067 2.75 3.907 3.907 0 0 1-2.058.581 3.934 3.934 0 0 1-3.93-3.93 3.934 3.934 0 0 1 3.93-3.929c.735 0 1.444.204 2.058.583a5.564 5.564 0 0 0-1.067 2.748l-.005.05a5.864 5.864 0 0 0-.016.215l-.004.066a5.815 5.815 0 0 0 0 .535zm5.637 3.661a3.916 3.916 0 0 1-2.896-1.276l-.026-.03a3.937 3.937 0 0 1-.108-.125h-.001a3.911 3.911 0 0 1-.898-2.498 3.91 3.91 0 0 1 1.008-2.624l.025-.029a3.88 3.88 0 0 1 .14-.145 3.916 3.916 0 0 1 2.756-1.132 3.934 3.934 0 0 1 3.93 3.93 3.934 3.934 0 0 1-3.93 3.93zM21.57 27.891h-3.76a3.21 3.21 0 0 0-3.206 3.207v3.76a3.21 3.21 0 0 0 3.206 3.207h3.76a3.21 3.21 0 0 0 3.207-3.207v-3.76a3.21 3.21 0 0 0-3.207-3.207zm1.492 5.547h-1.829a.857.857 0 1 0 0 1.715h1.8a1.495 1.495 0 0 1-1.463 1.197h-3.76a1.494 1.494 0 0 1-1.462-1.197h1.799a.857.857 0 1 0 0-1.715h-1.829v-.742h1.829a.857.857 0 1 0 0-1.715h-1.823a1.493 1.493 0 0 1 1.486-1.375h3.76c.784 0 1.426.607 1.486 1.375h-1.823a.857.857 0 1 0 0 1.715h1.83v.742zM54.272 46.182H24.42a.857.857 0 0 0 0 1.714h29.852a.857.857 0 1 0 0-1.714zM18.955 46.182H15.46a.857.857 0 1 0 0 1.714h3.494a.857.857 0 1 0 0-1.714z"/></svg>