<svg viewBox="0 0 52 73" fill="#fff" xmlns="http://www.w3.org/2000/svg"><path fill-rule="evenodd" clip-rule="evenodd" d="M31.689 30.936l.093-.769-.739.231-5.049 1.58-5.51-1.583-.726-.208.091.748 3.567 29.498.993-.12-3.477-28.749 4.93 1.417.138-.48.15.476 4.453-1.393-3.474 28.73.993.12 3.567-29.498z" fill="#fc981c" filter="drop-shadow(0 0 30px #ffc74b)"/><path fill-rule="evenodd" clip-rule="evenodd" d="M25.36.044A.289.289 0 0 1 25.396 0l-.028.023a2.816 2.816 0 0 1-.16.113c-.146.098-.354.227-.619.385-.528.315-1.262.73-2.134 1.214a447.776 447.776 0 0 1-6.298 3.404 1199.403 1199.403 0 0 1-8.255 4.348l-.57.297-.093.049h-.48l.082.437L.094 25.162 0 25.37l.096.208L16.138 60.39V68.93l.11.137L19 72.507l.15.188H32.387l.15-.187 2.755-3.44.11-.138V60.391l16.041-34.813.096-.208-.094-.208-6.812-15.036-.04-.085.039-.208h-.332l-.093-.049-.57-.297a1326.558 1326.558 0 0 1-8.255-4.348 446.658 446.658 0 0 1-6.298-3.404c-.872-.483-1.606-.9-2.134-1.214a15.123 15.123 0 0 1-.62-.385A2.854 2.854 0 0 1 26.143 0s.017.015.037.044l-.41.286-.41-.286zM1.45 24.593l5.712-12.608L9.03 21.98l-7.58 2.613zm6.574-13.44l1.962 10.498 14.248-4.91-16.21-5.588zM1.26 25.716l7.956-2.742 6.292 33.661L1.26 25.716zm15.878 42.258v-7.129h15.481l-15.481 7.13zm.54 1.281l1.954 2.44h12.274l1.953-2.44H17.68zm16.722-1v-7.13l-15.481 7.13H34.4zm15.878-42.539L36.123 56.434l6.114-33.49 8.04 2.772zm-15.795 34.13l6.798-37.23-15.512-5.347-15.597 5.376 6.954 37.2h17.357zm15.605-35.253l-7.67-2.643 1.86-10.182 5.81 12.825zm-8.626-2.973l1.902-10.415-16.06 5.535 14.158 4.88zM25.77 16.211l15.607-5.378H10.162l15.607 5.379zM9.4 9.834h32.74a1373.834 1373.834 0 0 1-7.227-3.812 448.311 448.311 0 0 1-6.314-3.411 85.512 85.512 0 0 1-2.16-1.23c-.271-.161-.496-.3-.663-.412l-.006-.004-.005.004c-.168.111-.393.25-.663.412-.542.323-1.286.745-2.161 1.23-1.752.97-4.041 2.202-6.314 3.411A1203.686 1203.686 0 0 1 9.4 9.833z"/></svg>