<svg viewBox="0 0 36 51" fill="#191919" xmlns="http://www.w3.org/2000/svg"><path fill-rule="evenodd" clip-rule="evenodd" d="M22.024 21.318l.093-.768-.738.23-3.412 1.068-3.727-1.07-.725-.209.09.75 2.443 20.194.993-.12-2.352-19.446 3.146.904.138-.48.15.477 2.816-.882-2.35 19.427.993.12 2.442-20.195z" fill="#fc981c" filter="drop-shadow(0 0 30px #ffc74b)"/><path fill-rule="evenodd" clip-rule="evenodd" d="M17.406.06a.365.365 0 0 1 .046-.055l-.008.007a1.762 1.762 0 0 1-.1.07c-.097.065-.237.152-.417.26-.36.213-.86.497-1.457.828A305.792 305.792 0 0 1 11.16 3.5a822.774 822.774 0 0 1-5.65 2.976l-.39.204-.029.015h-.48l.082.437-4.599 10.15L0 17.49l.096.207 10.968 23.802v5.867l.11.137 1.885 2.356.15.187h9.212l.15-.187 1.886-2.356.11-.137V41.5l10.968-23.802.096-.207-.095-.209-4.663-10.293-.007-.014.052-.28h-.378l-.03-.015-.39-.204A904.522 904.522 0 0 1 24.47 3.5a305.792 305.792 0 0 1-4.31-2.329 57.905 57.905 0 0 1-1.456-.829c-.18-.107-.32-.194-.417-.259a1.842 1.842 0 0 1-.1-.07l-.009-.007a.358.358 0 0 1 .047.055l-.41.286-.41-.286zM1.46 16.688l3.553-7.841 1.162 6.216-4.715 1.625zm4.41-8.695l1.26 6.741 9.15-3.153L5.87 7.993zm-4.619 9.825l5.11-1.76 4.04 21.616-9.15-19.856zM12.064 46.41v-4.477h9.721l-9.721 4.477zm.54 1.28l1.086 1.356H21.94l1.085-1.355H12.605zm10.963-1v-4.476l-9.722 4.477h9.722zm10.811-28.872l-9.095 19.738 3.929-21.519 5.166 1.781zM23.65 40.933l4.605-25.225-10.44-3.598-10.498 3.618 4.712 25.205h11.62zm10.52-24.245l-4.777-1.646 1.158-6.34 3.619 7.986zm-5.733-1.975l1.22-6.685-10.307 3.553 9.087 3.132zm-10.622-3.661l9.743-3.358H8.072l9.743 3.358zM7.25 6.694h21.132l-.12-.063A826.397 826.397 0 0 1 24 4.38a307.038 307.038 0 0 1-4.325-2.336c-.6-.333-1.111-.622-1.484-.845a13.06 13.06 0 0 1-.377-.231c-.105.067-.232.145-.376.231-.373.223-.885.512-1.484.845a306.48 306.48 0 0 1-4.325 2.337A821.529 821.529 0 0 1 7.37 6.63l-.12.063z"/></svg>