<svg viewBox="0 0 106 151" fill="#fff" xmlns="http://www.w3.org/2000/svg"><path fill-rule="evenodd" clip-rule="evenodd" d="M65.744 63.907l.093-.768-.739.23-10.637 3.33-11.597-3.333-.725-.208.09.749 7.407 61.248.992-.12-7.315-60.5 11.016 3.166.138-.48.149.476 10.042-3.142-7.313 60.48.992.12 7.407-61.248z" fill="#fc981c" stroke="#fc981c" stroke-width=".5" filter="drop-shadow(0 4px 40px #ffc74b)"/><path fill-rule="evenodd" clip-rule="evenodd" d="M52.51.13a.025.025 0 0 0 .002-.005l-.005.005c-.011.01-.04.036-.095.079a6.337 6.337 0 0 1-.363.258c-.316.21-.757.484-1.31.813a176.265 176.265 0 0 1-4.445 2.53c-3.625 2.01-8.37 4.562-13.086 7.071a2502.71 2502.71 0 0 1-18.326 9.649l-.31.161h-.48l.082.437L.094 52.204 0 52.413l.096.207 33.359 72.393v17.66l.11.137 5.717 7.143.15.188h26.962l.151-.188 5.718-7.143.11-.137V125.09l.023-.128 33.336-72.342.095-.207-.094-.209-14.144-31.219-.072-.157-.099-.052.015-.085h-.178l-.31-.161-1.183-.618a2774.353 2774.353 0 0 1-17.143-9.03c-4.717-2.51-9.461-5.062-13.085-7.071a176.232 176.232 0 0 1-4.446-2.53c-.553-.33-.994-.604-1.31-.814a6.382 6.382 0 0 1-.363-.258A1.419 1.419 0 0 1 53.32.13l-.005-.005.002.005.005.006-.41.286-.408-.286.004-.006zM1.412 51.716l13.082-28.873 4.278 22.89-17.36 5.983zm13.957-29.63l4.36 23.318 31.65-10.908-36.01-12.41zM1.288 52.816l17.671-6.09 13.976 74.77-31.647-68.68zm33.167 88.9v-16.182h35.139l-35.14 16.182zm.54 1.281l4.918 6.143H65.914l4.918-6.143H34.996zm36.378-1v-16.181l-35.137 16.181h35.137zm33.167-89.181l-31.422 68.188 13.573-74.34 17.849 6.152zm-33.083 71.718l14.278-78.2-32.82-11.31-33 11.373 14.606 78.137h36.936zm32.957-72.82L86.873 45.67l4.251-23.286 13.29 29.332zm-18.498-6.374l4.227-23.147-35.694 12.302L85.917 45.34zM52.914 33.967l35.62-12.276H17.294l35.62 12.276zM20.763 18.583c-1.64.86-3.022 1.582-4.029 2.108h72.359l-4.029-2.108c-3.508-1.84-8.196-4.308-12.915-6.819-4.718-2.51-9.468-5.065-13.1-7.079a177.207 177.207 0 0 1-4.473-2.546 32.748 32.748 0 0 1-1.353-.84 8.94 8.94 0 0 1-.31-.216c-.09.066-.193.138-.309.215-.336.225-.794.509-1.352.841-1.118.666-2.658 1.54-4.473 2.546-3.633 2.014-8.383 4.569-13.101 7.08-4.718 2.51-9.407 4.978-12.915 6.817z"/></svg>